<?xml version="1.0" encoding="utf-8"?>
<!-- Generator: Adobe Illustrator 25.4.1, SVG Export Plug-In . SVG Version: 6.00 Build 0)  -->
<svg version="1.1" id="Capa_1" xmlns="http://www.w3.org/2000/svg" xmlns:xlink="http://www.w3.org/1999/xlink" x="0px" y="0px"
	 viewBox="0 0 1417.32 1417.32" style="enable-background:new 0 0 1417.32 1417.32;" xml:space="preserve">
<style type="text/css">
	.st0{fill:#FFFFFF;}
</style>
<path class="st0" d="M1146.1,766.98c-11.98,4.63-23.83,9.67-36.46,12.43c-1.98,0.43-3.69,0.48-5.32-0.47
	c-1.16,1.25-2.45,2.27-3.84,3.11c-0.76,0.67-1.57,1.3-2.44,1.87c2.08-0.11,4.17-0.34,6.26-0.43c1.73-0.49,3.48-0.84,5.15-0.92
	c-0.03-0.03-0.06-0.05-0.09-0.08c2.14-0.47,3.99-0.72,5.73-1.27c6.38-2.03,12.77-4.05,19.08-6.28c6.92-2.44,13.82-4.96,20.73-7.46
	c0.07-1.31,0.17-2.62,0.29-3.93C1152.14,764.65,1149.12,765.81,1146.1,766.98z"/>
<path class="st0" d="M1182.93,752.76c-0.1,0.04-0.19,0.08-0.3,0.12c-0.72,0.3-0.69,0.3-1.47,0.41c-0.01,0-0.05,0.01-0.08,0.01
	c-2.38,0.89-4.76,1.79-7.13,2.71c-3.28,1.27-6.54,2.57-9.82,3.85c0.27,0.58,0.43,1.25,0.46,2c0.02,0.42,0,0.83-0.05,1.22
	c6.07-2.17,12.13-4.39,18.2-6.59c0.07-1.26,0.16-2.52,0.27-3.77C1182.99,752.74,1182.96,752.75,1182.93,752.76z"/>
<path class="st0" d="M1263.78,770.9c-3.21-2.67-6.21-5.63-9.16-8.6c-3.43-3.46-6.87-6.81-11.93-7.73c-2.6-0.47-5.12-0.68-7.38,1.17
	c-0.35,0.28-1.24,0.28-1.65,0.03c-8.5-5.19-17.93-6.33-27.61-6.39c-0.34,0-0.69-0.09-1.06-0.14c1.92-2.14,3.77-4.29,5.74-6.31
	c0.35-0.36,1.23-0.4,1.82-0.31c3.77,0.58,7.49,0.72,11.14-0.69c7.04-2.71,10.23-8.24,9.18-15.7c-0.85-6.06-2.31-11.9-4.8-17.52
	c-1.08-2.44-1.48-5.17-2.27-8.11c-1.09,3.45-2.73,6.24-5.5,8.17c-1.13,0.79-2.4,1.52-3.71,1.87c-7.29,1.9-11.65,6.62-13.41,13.81
	c-0.53,2.16-0.76,4.4-0.93,6.62c-0.25,3.17,1.41,5.65,3.42,7.85c1.44,1.57,1.12,2.83-0.16,4.18c-0.92,0.96-1.8,1.95-2.72,2.92
	c-2.1,2.22-4.47,3.75-7.65,4.21c-4.8,0.68-9.47,1.78-14.08,3.11c-0.03,1.19-0.08,2.38-0.14,3.58c0.1-0.04,0.21-0.07,0.31-0.11
	c1.31-0.46,3.11-0.4,4.41,0.11c7.63,3.01,13.08,8.64,17.57,15.31c0.25,0.37,0.09,1.32-0.23,1.71c-6.48,7.99-2.56,20.81,7.23,23.58
	c1.28,0.36,2.56,0.7,3.82,1.13c3.23,1.13,6.12,2.75,7.9,5.94c1.42-5.31,0.83-14.88-1.3-21.17c-0.56-1.65-1.05-3.34-1.81-4.91
	c-2.35-4.87-5.29-6.42-11.24-6.19c-4.3-7.32-10.54-12.61-17.87-17.72c3.72-0.55,6.96-1.16,10.23-1.5
	c10.29-1.06,20.16,0.88,29.76,4.47c0.49,0.18,0.93,0.91,1.1,1.47c3.65,11.71,10.83,20.2,22.55,24.39c3.7,1.32,7.48,0.85,10.96-1.06
	c3.85-2.11,7.08-4.88,9.29-9.21C1269.61,774.48,1266.46,773.13,1263.78,770.9z"/>
<path class="st0" d="M226.24,785.59V663.06h13.33v110.38h34.19v12.15H226.24z"/>
<path class="st0" d="M361.84,724.16c0,8.77-0.7,16.97-2.1,24.6c-1.4,7.63-3.59,14.33-6.58,20.11c-2.99,5.78-6.91,10.3-11.78,13.54
	c-4.86,3.24-10.76,4.86-17.68,4.86c-7.04,0-13.02-1.66-17.94-4.99c-4.92-3.32-8.87-7.89-11.86-13.7c-2.99-5.81-5.17-12.54-6.54-20.2
	c-1.37-7.65-2.05-15.78-2.05-24.39c0-13.97,1.44-25.59,4.32-34.86c2.88-9.27,7.17-16.23,12.86-20.87c5.7-4.64,12.77-6.96,21.2-6.96
	c9.16,0,16.54,2.78,22.13,8.34c5.59,5.56,9.65,13.09,12.19,22.59C360.57,701.73,361.84,712.37,361.84,724.16z M299.15,724.16
	c0,11.12,0.93,20.46,2.81,28.03c1.87,7.57,4.62,13.28,8.26,17.14c3.63,3.86,8.07,5.78,13.33,5.78c5.36,0,9.83-1.89,13.41-5.66
	c3.57-3.77,6.27-9.44,8.09-17.01c1.81-7.57,2.72-17,2.72-28.29c0-16.82-2.01-29.47-6.03-37.97c-4.02-8.49-10.03-12.74-18.02-12.74
	c-5.48,0-10.03,1.92-13.66,5.74c-3.63,3.83-6.36,9.5-8.17,17.01C300.06,703.72,299.15,713.04,299.15,724.16z"/>
<path class="st0" d="M434.17,752.15c0,6.93-1.33,13.03-3.98,18.31c-2.65,5.28-6.37,9.4-11.15,12.36
	c-4.78,2.96-10.41,4.44-16.89,4.44c-3.18,0-6.26-0.18-9.22-0.54c-2.96-0.37-5.77-0.94-8.42-1.72c-2.65-0.78-5.18-1.76-7.58-2.93
	v-13.83c3.8,2.13,7.92,3.74,12.36,4.86c4.44,1.12,8.56,1.68,12.36,1.68c4.08,0,7.51-0.96,10.31-2.89c2.79-1.93,4.93-4.51,6.41-7.75
	c1.48-3.24,2.22-6.82,2.22-10.73c0-4.13-0.62-7.61-1.84-10.43c-1.23-2.82-3.24-5.38-6.03-7.67c-2.79-2.29-6.57-4.66-11.31-7.12
	c-3.58-1.96-6.82-3.97-9.72-6.03c-2.91-2.07-5.39-4.4-7.46-7c-2.07-2.6-3.66-5.66-4.78-9.18c-1.12-3.52-1.68-7.71-1.68-12.57
	c-0.11-6.42,1.16-12.05,3.81-16.89c2.65-4.83,6.34-8.59,11.06-11.27c4.72-2.68,10.13-3.99,16.22-3.94c4.64,0,9.06,0.58,13.28,1.72
	c4.22,1.15,7.86,2.53,10.94,4.15l-4.36,12.24c-3.41-1.84-6.78-3.23-10.1-4.15c-3.32-0.92-6.5-1.38-9.51-1.38
	c-3.74,0-6.94,0.81-9.6,2.43c-2.65,1.62-4.69,3.84-6.12,6.66c-1.42,2.82-2.14,6.11-2.14,9.85c0,4.3,0.63,7.85,1.89,10.64
	c1.26,2.8,3.3,5.28,6.12,7.46c2.82,2.18,6.55,4.53,11.19,7.04c5.31,2.8,9.72,5.8,13.24,9.01c3.52,3.22,6.15,6.86,7.88,10.94
	C433.3,741.98,434.17,746.73,434.17,752.15z"/>
<path class="st0" d="M479.6,785.59h-13.33V675.13h-23.89v-12.07h61.18v12.07H479.6V785.59z"/>
<path class="st0" d="M598.94,785.59l-9.22-39.39h-29.08l-9.22,39.39h-14.25l29.58-122.53h16.18l30.17,122.53H598.94z M587.21,733.88
	l-9.39-41.57c-0.39-2.06-0.77-4.09-1.13-6.08c-0.36-1.98-0.7-3.91-1.01-5.78c-0.31-1.87-0.6-3.7-0.88-5.49
	c-0.17,1.79-0.39,3.63-0.67,5.53c-0.28,1.9-0.62,3.81-1.01,5.74c-0.39,1.93-0.81,3.9-1.26,5.91l-9.14,41.74H587.21z"/>
<path class="st0" d="M697.08,785.59h-16.18l-42.74-101.41h-0.67c0.22,2.96,0.41,5.82,0.54,8.59c0.14,2.77,0.24,5.44,0.29,8
	c0.05,2.57,0.08,5.08,0.08,7.54v77.27h-12.66V663.06h16.09l42.83,99.9h0.5c-0.17-3.3-0.32-6.4-0.46-9.3
	c-0.14-2.9-0.24-5.63-0.29-8.17c-0.06-2.54-0.08-4.87-0.08-7v-75.43h12.74V785.59z"/>
<path class="st0" d="M788.69,722.82c0,13.8-1.59,25.35-4.78,34.66c-3.18,9.3-7.92,16.31-14.21,21.04
	c-6.29,4.72-14.12,7.08-23.51,7.08h-24.05V663.06h25.06c9.11,0,16.73,2.26,22.88,6.79c6.15,4.53,10.78,11.23,13.91,20.11
	C787.12,698.85,788.69,709.8,788.69,722.82z M774.77,723.49c0-10.67-1.03-19.61-3.1-26.82c-2.07-7.21-5.17-12.62-9.3-16.26
	c-4.14-3.63-9.36-5.45-15.67-5.45h-11.23v98.64h10.22c10.11,0,17.49-4.2,22.13-12.61C772.45,752.58,774.77,740.08,774.77,723.49z"/>
<path class="st0" d="M855.06,785.59h-13.33V663.06h48.19v11.9h-34.86v45.76h32.85v12.07h-32.85V785.59z"/>
<path class="st0" d="M955.55,785.59l-9.22-39.39h-29.08l-9.22,39.39h-14.25l29.58-122.53h16.18l30.17,122.53H955.55z M943.82,733.88
	l-9.39-41.57c-0.39-2.06-0.77-4.09-1.13-6.08c-0.36-1.98-0.7-3.91-1.01-5.78c-0.31-1.87-0.6-3.7-0.88-5.49
	c-0.17,1.79-0.39,3.63-0.67,5.53c-0.28,1.9-0.62,3.81-1.01,5.74c-0.39,1.93-0.81,3.9-1.26,5.91l-9.14,41.74H943.82z"/>
<path class="st0" d="M1047.07,663.06v84.23c0,9.33-1.26,16.94-3.77,22.84c-2.51,5.9-6.19,10.22-11.02,12.99
	c-4.83,2.77-10.8,4.15-17.89,4.15c-10.78,0-19-3.24-24.64-9.72c-5.64-6.48-8.46-16.54-8.46-30.17v-84.31h13.33v84.4
	c0,9.84,1.72,16.9,5.15,21.2c3.44,4.3,8.31,6.45,14.62,6.45c4.19,0,7.71-0.92,10.56-2.77c2.85-1.84,5-4.81,6.45-8.88
	c1.45-4.08,2.18-9.47,2.18-16.18v-84.23H1047.07z"/>
<path class="st0" d="M1122.5,752.15c0,6.93-1.33,13.03-3.98,18.31c-2.65,5.28-6.37,9.4-11.15,12.36
	c-4.78,2.96-10.41,4.44-16.89,4.44c-3.18,0-6.26-0.18-9.22-0.54c-2.96-0.37-5.77-0.94-8.42-1.72c-2.65-0.78-5.18-1.76-7.58-2.93
	v-13.83c3.8,2.13,7.92,3.74,12.36,4.86c4.44,1.12,8.56,1.68,12.36,1.68c4.08,0,7.51-0.96,10.31-2.89c2.79-1.93,4.93-4.51,6.41-7.75
	c1.48-3.24,2.22-6.82,2.22-10.73c0-4.13-0.62-7.61-1.84-10.43c-1.23-2.82-3.24-5.38-6.03-7.67c-2.79-2.29-6.57-4.66-11.31-7.12
	c-3.58-1.96-6.82-3.97-9.72-6.03c-2.91-2.07-5.39-4.4-7.46-7c-2.07-2.6-3.66-5.66-4.78-9.18c-1.12-3.52-1.68-7.71-1.68-12.57
	c-0.11-6.42,1.16-12.05,3.81-16.89c2.65-4.83,6.34-8.59,11.06-11.27c4.72-2.68,10.13-3.99,16.22-3.94c4.64,0,9.06,0.58,13.28,1.72
	c4.22,1.15,7.86,2.53,10.94,4.15l-4.36,12.24c-3.41-1.84-6.78-3.23-10.1-4.15c-3.32-0.92-6.5-1.38-9.51-1.38
	c-3.74,0-6.94,0.81-9.6,2.43c-2.65,1.62-4.69,3.84-6.12,6.66c-1.42,2.82-2.14,6.11-2.14,9.85c0,4.3,0.63,7.85,1.89,10.64
	c1.26,2.8,3.3,5.28,6.12,7.46c2.82,2.18,6.55,4.53,11.19,7.04c5.31,2.8,9.72,5.8,13.24,9.01c3.52,3.22,6.15,6.86,7.88,10.94
	C1121.63,741.98,1122.5,746.73,1122.5,752.15z"/>
<path class="st0" d="M1130.71,663.06v12.07h23.89v94.43c0.1,0.41,0.16,0.85,0.15,1.34c0.03,0.74-0.03,1.46-0.15,2.19v12.5h13.33
	V675.13h23.97v-12.07H1130.71z"/>
<path class="st0" d="M321.17,785.24c-1.81,1.52-3.83,2.8-6.09,3.79c-3.97,1.74-7.87,3.62-11.87,5.27c-0.78,0.32-2.03,0.16-2.8-0.26
	c-2.2-1.2-4.18-2.81-6.4-3.97c-4.41-2.3-8.93-2.07-12.45,1.4c-5.11,5.04-9.73,10.57-14.56,15.9c-0.02,0.03,0.02,0.11,0.04,0.17
	c0.12,0.04,0.27,0.15,0.36,0.12c0.58-0.23,1.19-0.43,1.72-0.75c3.89-2.29,7.78-2.15,11.82-0.28c6.18,2.87,11.97,1.67,17.45-1.98
	c1.97-1.32,3.46-2.99,4.13-5.35c0.19-0.69,0.68-1.54,1.27-1.83c2.82-1.38,5.73-2.58,8.37-3.75c-1.3,4.89-2.79,9.61-3.73,14.43
	c-0.42,2.17-0.71,3.93-2.65,5.39c-1.32,0.99-2.29,2.67-2.97,4.24c-3.37,7.74-2.72,15.79-1.57,23.92c0.64-4.01,3.15-6.04,6.82-7.11
	c1.59-0.46,3.09-1.31,4.53-2.16c2.54-1.5,4.65-3.53,5.2-6.53c0.99-5.43-0.01-10.66-3.8-14.67c-2.02-2.14-2.02-3.99-1.47-6.33
	c0.37-1.56,0.7-3.14,1.18-4.67c1.41-4.47,2.82-8.93,7.64-11.1c0.99-0.44,1.85-1.27,2.63-2.06c0.01-0.01,0.02-0.02,0.03-0.03
	C322.92,786.74,321.91,786.14,321.17,785.24z"/>
<path class="st0" d="M724.41,663.14c-0.9,0.08-1.81,0.09-2.74-0.02c-4.64-0.52-8.57-2.64-11.98-5.6c-5.75-5-11.13-10.42-16.96-15.31
	c-7.61-6.39-12.54-14.32-15.03-23.86c-1.21-4.63-0.95-5.44,3.38-7.58c5.23-2.59,8.8-6.54,11.48-11.73
	c3.81-7.37,4.09-15.51,5.96-23.41c-3.3,4.44-8.13,5.6-13.14,6.58c-4.51,0.88-9.05,1.85-13.39,3.33c-3.91,1.34-6.31,4.49-6.54,8.71
	c-0.34,6.2,1.33,11.72,6.22,15.98c0.78,0.68,1.64,1.89,1.57,2.79c-0.28,3.39,0.33,6.57,1.79,9.55c1.64,3.34,3.52,6.57,5.49,10.2
	c-9.02-5.74-18.63-9.01-28.97-10.21c-0.81-0.09-1.54-1.22-2.23-1.94c-1.27-1.34-2.24-3.17-3.77-4.04
	c-6.34-3.63-12.91-3.38-19.53-0.58c-4.39,1.86-8.81,3.64-12.93,5.34c1.85,1.48,4.17,3.33,6.48,5.19c2.34,1.88,4.62,3.85,7.02,5.66
	c3.29,2.47,7.1,3.41,11.17,3.69c6.83,0.47,13.53-3.83,12.94-11.32c12.04,1.88,22.3,7.29,32.53,14.19
	c-4.48,0.85-8.31,1.82-11.24,4.82c-0.2,0.21-0.91,0.06-1.32-0.1c-2.34-0.89-4.55-0.48-6.22,1.21c-1.65,1.67-3.17,3.57-4.28,5.62
	c-1.42,2.63-2.4,5.5-3.5,8.3c-1.58,4.01-4.03,7.01-8.53,7.8c-0.05,0.01-0.06,0.23-0.13,0.54c1.13,0.29,2.26,0.81,3.4,0.83
	c3.62,0.06,7.32,0.4,10.84-0.21c7.32-1.27,13.31-4.77,15.97-12.22c0.66-1.84,0.76-3.94,0.81-5.93c0.06-2.31-1.43-3.79-4.13-4.89
	c2.88-1.14,5.06-2.06,7.28-2.85c2.67-0.95,4.94-0.37,7.04,1.66c5.03,4.85,10.1,9.68,15.36,14.28c2.82,2.47,5.9,4.74,9.15,6.59
	c3.45,1.96,6.94,2.53,10.46,2.3C724.23,665.37,724.3,664.25,724.41,663.14z"/>
<path class="st0" d="M764.37,674.21c1.14,1.8,2.27,3.6,3.44,5.38C766.81,677.48,765.66,675.7,764.37,674.21z"/>
<path class="st0" d="M246.89,780.33c-2.03-1.57-4.06-3.13-6.1-4.66c-5.73-4.28-11.49-8.5-17.23-12.75c-0.8,0.54-1.6,1.07-2.43,1.57
	c2.53,1.86,5.08,3.69,7.64,5.51c5.53,3.94,11.1,7.8,16.57,11.88C245.74,781.29,246.27,780.75,246.89,780.33z"/>
<g>
	<path class="st0" d="M225.41,764.08c-3.79-3.48-7.57-6.97-11.31-10.48c-0.3-0.28-0.56-0.62-0.8-0.97c-0.64-0.53-1.25-1.1-1.83-1.72
		c-1.22-1.32-2.11-2.67-2.79-4.05c-0.06,0.22-0.12,0.44-0.17,0.67c-2.06-2.75-3.98-5.12-5.66-7.57c-5.2-7.6-7.55-15.55-8.3-23.65
		l-3.55-1.01c-0.48,7.04,2.24,13.93,5.88,20.77c0.14,0.27,0.21,0.55,0.32,0.85c-2.78-1-5.52-1.95-8.21-3.01
		c-0.48-0.19-0.89-0.86-1.05-1.34c-1.04-3.05-2.47-5.96-5.29-8.46c-5.44-4.83-11.86-6.05-18.3-3.55c-5.22,2.03-9.98,4.48-14.12,7.67
		c-1.79,1.38-4.15,2.31-6.51,3.59c3.63,0.07,6.89,0.7,9.82,2.41c1.19,0.69,2.4,1.51,3.27,2.45c4.8,5.21,10.97,7.51,18.32,7.25
		c2.2-0.08,4.37-0.41,6.49-0.77c3.03-0.52,4.61-2.37,5.79-4.42c0.84-1.47,2.13-1.5,3.91-0.82c1.27,0.49,2.55,0.95,3.82,1.44
		c2.92,1.12,5.33,2.61,7.08,4.97c6,8.09,13.68,15.25,21.57,22.27C224.05,765.62,224.64,764.75,225.41,764.08z"/>
	<path class="st0" d="M191.26,716.41c-0.15-0.59-0.28-1.18-0.39-1.78c-0.07-0.39-0.65-1.01-1.09-1.13c-2.89-0.78-4.35-2.6-5.66-4.59
		c-2.54-3.87-2.14-7.64-1.64-11.45c0.43-3.28,0.8-6.58,0.82-9.91c0.01-2.78-0.96-5.51-4.57-7.69c4.79-0.3,9.04,0.77,13.16,2.53
		c3.73,1.59,6.53,4,7.88,7.1c4.27,9.81,2.27,18.32-4.52,25.74c-0.32,0.36-0.61,0.96-0.43,1.37c0.04,0.09,0.08,0.17,0.11,0.26
		C193.58,716.22,192.32,716.13,191.26,716.41z"/>
</g>
</svg>
